<svg xmlns="http://www.w3.org/2000/svg" width="100" height="27" viewBox="0 0 100 27" role="img" aria-label="Eater Logo Eater Logo"><title>Eater Logo</title><desc>Eater Logo</desc><path fill="#000" fill-opacity=".5" fill-rule="nonzero" d="M0 10.344V0h16.656v5.631H5.631v4.713h9.366v5.068H5.63v3.26a2.707 2.707 0 0 0 2.697 2.697h8.328V27H8.328C3.734 27 0 23.266 0 18.672v-8.328zm61.439 0V0h16.656v5.631H67.07v4.713h9.366v5.068H67.07v3.26a2.707 2.707 0 0 0 2.697 2.697h8.328V27h-8.328c-4.594 0-8.328-3.734-8.328-8.328v-8.328zM40.544 5.63V0h18.524v5.631h-6.431V27h-5.661V5.631h-6.432zM19.65 8.328C19.65 3.734 23.384 0 27.978 0h10.166v27h-5.631v-9.958L25.28 18.85V27H19.65V8.328zm12.892 3.646V5.63h-4.534a2.707 2.707 0 0 0-2.697 2.697v5.454l7.231-1.808zm67.07-2.934a8.883 8.883 0 0 1-3.645 7.201l3.645 10.73h-5.068l-3.082-8.98c-.296 0-.563.029-.86.029H86.72v8.95h-5.631V.06h9.573c1.245 0 2.43.236 3.556.74a8.902 8.902 0 0 1 2.816 1.956c.8.83 1.452 1.779 1.897 2.846a9.004 9.004 0 0 1 .681 3.438zm-8.98 3.349c1.838 0 3.35-1.512 3.32-3.35 0-1.718-1.334-3.2-3.083-3.319l-.237-.03H86.75v6.699h3.882z"/></svg>