<svg xmlns="http://www.w3.org/2000/svg" width="181" height="26" viewBox="0 0 181 26" role="img" aria-label="Fast Company Logo Fast Company Logo"><title>Fast Company Logo</title><desc>Fast Company Logo</desc><path fill="#000" fill-opacity=".5" fill-rule="evenodd" d="M159.043 3.317v22.36h-.882l-13.379-20.3v17.161c0 1.766.686 2.207 3.088 2.55v.49h-13.722v-.49c2.156-.49 2.597-.98 1.862-3.089l-1.666-4.56h-7.45l-1.763 4.903c-.49 1.57.196 2.452 2.744 2.795v.49h-7.253v-.49c1.323-.294 2.646-1.128 3.528-3.432L131.992.129h.49l8.33 22.556c.736 1.962.98 2.305 1.618 2.305.637 0 1.127-.49 1.127-2.305V3.415c0-1.815-.588-2.305-2.352-2.6v-.49h5.39l11.272 16.918V3.415c0-1.815-.735-2.256-3.136-2.6v-.49h15.192v.49c-2.646.344-2.94.834-2.45 2.207l4.606 10.298 4.41-10.052c.687-1.57-.146-2.207-2.547-2.452v-.49h6.958v.49c-1.372.245-2.45.735-3.43 2.942l-4.9 11.425v7.453c0 1.766.685 2.256 2.744 2.55v.49h-9.655v-.49c2.059-.294 2.745-.784 2.745-2.55v-7.453l-5.342-11.866c-.882-1.962-1.617-2.354-2.548-2.354-.883 0-1.47.588-1.47 2.354zm-24.968 13.24l-3.445-9.313-3.346 9.313h6.79zm-71.846-3.614c0 7.943 3.917 11.963 8.03 12.012 2.154 0 4.26-.834 5.875-2.452.734-.735 1.469-1.716 1.958-2.745l.49.098-.783 4.903c-2.252.784-4.652 1.176-7.344 1.176-6.12 0-12.828-4.265-12.828-12.992S64.383 0 70.944 0c2.252 0 4.554.294 7.05.784V6.03h-.489c-.588-1.667-1.175-2.696-1.958-3.432-.98-.98-2.644-1.568-5.19-1.568-4.407 0-8.079 4.167-8.079 12.011l-.049-.098zM37.885.323h17.284v6.032h-.49c-.734-3.825-2.252-5.05-4.896-5.05h-1.175v21.331c0 1.766.734 2.256 2.79 2.55v.49h-9.743v-.49c2.057-.294 2.742-.784 2.742-2.55V1.304h-1.273c-2.546 0-4.064 1.226-4.799 5.051h-.49V.323h.05zM30.225 26c-2.108 0-4.658-.343-6.521-.883v-4.906H19.78v-.49c1.765-.098 2.452-.49 1.962-1.57l-.981-2.6h-5.05l-.883 2.11c-.49 1.079 0 1.962 1.814 2.109v.49h-5.001v-.49c.882-.147 1.373-.49 2.108-2.208l5.59-13.147h.49l5.59 13.393c.686 1.618 1.177 1.766 1.961 1.962v.49H24.44c.589 1.325 1.275 2.355 1.962 3.042.98 1.08 2.55 1.668 4.315 1.668 2.647.049 5.099-1.717 5.099-4.12 0-2.061-.785-3.435-3.285-4.808l-4.413-2.453c-2.452-1.472-4.02-3.925-4.02-6.721C24.046 2.649 27.233 0 31.401 0c1.961 0 3.825.294 5.394.785v5.592h-.49c-.491-2.207-1.276-3.434-1.962-4.17-.98-.833-1.961-1.226-3.432-1.226-2.844 0-4.413 1.717-4.413 3.777 0 1.816.784 3.14 3.334 4.514l4.756 2.6c2.697 1.471 4.217 3.924 4.217 6.77 0 4.905-4.413 7.358-8.532 7.358h-.049zm-9.917-11.448l-2.07-5.11-2.069 5.11h4.14zm72.178 11.156l-.49.098-7.35-20.582-.638 16.76c0 1.862.98 2.94 2.646 3.234v.49H79.94v-.49c1.765-.245 2.745-1.47 2.794-3.234L83.37 3.46c.098-1.764-.49-2.304-2.45-2.598v-.49h6.37l6.666 18.28L100.426.322h5.88v.49c-1.862.245-2.45.834-2.45 2.598l.784 19.308c0 1.666.98 2.45 3.088 2.45 2.107 0 2.793-.784 2.793-2.548V3.36c0-1.763-.49-2.254-2.303-2.548v-.49h8.625c4.901 0 9.018 1.814 9.018 7.204s-4.166 7.204-9.018 7.204c-.637 0-1.372 0-2.205-.147v7.988c0 1.764.686 2.205 3.087 2.548v.49H97.78v-.49c1.96-.245 2.696-.784 2.647-2.45l-.638-17.25-7.35 20.288h.048zm24.162-11.997c3.28 0 4.75-1.767 4.75-6.184s-1.47-6.233-4.799-6.233h-2.057v12.27l1.96.147h.146zm-43.79 6.662c-3.23 0-7.34-2.942-7.34-7.356 0-4.561 4.061-7.455 7.34-7.455 3.28 0 7.341 2.943 7.341 7.357 0 4.56-4.062 7.454-7.34 7.454zm.065-13.711c-2.056 0-3.427 1.617-3.525 6.37 0 4.656 1.469 6.371 3.525 6.371s3.525-1.715 3.525-6.37c0-4.754-1.469-6.371-3.574-6.371h.049zm-60.65 9.158c-.736-2.746-1.571-3.286-2.946-3.335H6.48v10.151c0 1.766.687 2.207 3.093 2.55v.49H0v-.49c1.767-.294 2.307-.784 2.307-2.55V3.413c0-1.815-.49-2.305-2.307-2.6v-.49h16.299v6.032h-.491c-.737-3.825-2.259-5.05-4.91-5.05H6.48v10.297h2.798c1.375 0 2.16-.637 2.946-3.334h.49v7.552h-.49.049z"/></svg>