<svg xmlns="http://www.w3.org/2000/svg" width="79" height="27" viewBox="0 0 79 27" role="img" aria-label="Inc Logo Inc Logo"><title>Inc Logo</title><desc>Inc Logo</desc><path fill="#000" fill-opacity=".5" fill-rule="evenodd" d="M0 0h18.162v6.33l-3.206.022v14.399l3.206.234v5.429H.009v-5.387l3.114-.276.14-14.399L.01 6.33 0 0zm31.164 20.736l2.546.247v5.397H19.517v-5.441l2.375-.203v-8.855h-2.375V6.232h11.238v3.694a.601.601 0 0 0 .409.22c1.355-2.084 3.673-3.445 7.763-3.395 3.92.047 6.785.966 7.873 5.13.166 1.874.21 4.893.133 9.058l2.257.044v5.397H35.23v-5.397l2.656-.247c.068-2.692.038-4.707-.089-6.045-.557-1.76-1.513-2.479-2.91-2.47-2.106.015-3.566 1.825-3.6 2.343-.082 1.425-.123 3.482-.123 6.172zm30.009 1.592c2.082-.002 3.25-1.033 3.5-3.091 4.57-.012 7.009.144 7.318.467-.268 4.615-5.097 7.742-11.604 7.244-4.339-.332-7.387-1.443-9.145-3.333-2.268-2.244-3.071-5.318-2.41-9.22.992-5.854 7.919-7.732 11.223-7.82 3.304-.09 6.527.237 9.02 2.32 2.493 2.084 2.553 3.993 2.916 5.633 0 .38-2.44.703-7.318.966-.427-2.902-1.594-4.33-3.5-4.284-1.907.047-3.048 1.036-3.424 2.969v4.611c.2 2.36 1.34 3.54 3.424 3.538zm13.888 4.304a3.25 3.25 0 1 1 0-6.5 3.25 3.25 0 0 1 0 6.5z"/></svg>