<svg xmlns="http://www.w3.org/2000/svg" width="58" height="16" viewBox="0 0 58 16">
  <path d="M4.176,15.36 C6.96,15.36 8.688,13.728 8.688,11.76 C8.688,9.504 7.488,8.448 5.376,6.768 C2.784,4.656 2.544,4.08 2.544,3.408 C2.544,2.544 3.072,2.064 4.368,2.064 C5.376,2.064 6.432,2.64 7.296,3.264 L8.112,1.248 C7.392,0.624 6.144,0 4.32,0 C1.872,0 0.24,1.392 0.24,3.408 C0.24,5.472 1.248,6.336 3.696,8.352 C5.856,10.128 6.432,10.608 6.432,11.808 C6.432,12.672 5.712,13.296 4.176,13.296 C2.976,13.296 1.776,12.528 0.912,11.76 L0,13.776 C1.104,14.832 2.592,15.36 4.176,15.36 Z M40.8,0.144 L38.064,0.144 L38.064,15.264 L40.464,15.264 L40.464,10.896 L40.848,10.896 C44.592,10.896 46.896,8.304 46.896,5.424 C46.896,1.92 44.448,0.144 40.8,0.144 Z M57.12,2.4 L57.12,0.144 L49.728,0.144 L49.728,15.264 L57.12,15.264 L57.12,13.056 L52.128,13.056 L52.128,8.688 L56.64,8.688 L56.64,6.48 L52.128,6.48 L52.128,2.4 L57.12,2.4 L57.12,2.4 Z M40.464,8.736 L40.464,2.256 L40.8,2.256 C42.72,2.256 44.496,2.928 44.496,5.424 C44.496,7.968 42.768,8.784 40.8,8.784 L40.464,8.784 L40.464,8.736 Z M31.2,10.608 L27.6,10.608 L29.424,4.896 L31.2,10.608 Z M18.432,6.48 L13.68,6.48 L13.68,0.144 L11.28,0.144 L11.28,15.264 L13.68,15.264 L13.68,8.736 L18.432,8.736 L18.432,15.264 L20.832,15.264 L20.832,0.144 L18.432,0.144 L18.432,6.48 L18.432,6.48 Z M32.688,15.264 L35.088,15.264 L30.048,0.144 L28.896,0.144 L23.856,15.264 L26.112,15.264 L26.928,12.768 L31.92,12.768 L32.688,15.264 Z" opacity=".5"/>
</svg>
