<svg xmlns="http://www.w3.org/2000/svg" width="118" height="29" viewBox="0 0 118 29" role="img" aria-label="Thrillist Logo Thrillist Logo"><title>Thrillist Logo</title><desc>Thrillist Logo</desc><path fill="#000" fill-opacity=".5" fill-rule="nonzero" d="M18.386 11.581h-2.673a.38.38 0 0 0-.379.38v8.32a.38.38 0 0 1-.38.38h-2.52a.38.38 0 0 1-.38-.38v-8.32a.38.38 0 0 0-.378-.38H8.984a.38.38 0 0 1-.379-.379V9.098c0-.208.17-.379.38-.379h9.42c.208 0 .379.17.379.379v2.104a.41.41 0 0 1-.398.379zm14.253-2.483v11.183a.38.38 0 0 1-.379.38h-2.502a.38.38 0 0 1-.379-.38v-3.923a.38.38 0 0 0-.379-.38h-3.203a.38.38 0 0 0-.38.38v3.923a.38.38 0 0 1-.378.38h-2.483a.38.38 0 0 1-.38-.38V9.098c0-.208.171-.379.38-.379h2.483c.208 0 .379.17.379.379v3.658c0 .209.17.38.379.38H29a.38.38 0 0 0 .38-.38V9.098c0-.208.17-.379.378-.379h2.483c.228 0 .398.17.398.379zm13.439 10.994a.366.366 0 0 1 .057.189.38.38 0 0 1-.38.38H42.97a.39.39 0 0 1-.322-.19L40.6 17.173a.39.39 0 0 0-.322-.19h-.626a.38.38 0 0 0-.379.38v2.918a.38.38 0 0 1-.379.38h-2.483a.38.38 0 0 1-.379-.38V9.098c0-.208.17-.379.38-.379h5.06c2.312 0 3.98 2.104 3.98 4.132a4.205 4.205 0 0 1-1.44 3.222c-.133.133-.17.341-.076.493l2.142 3.526zm-4.739-5.952c.417 0 .815-.455.834-1.289 0-.815-.512-1.27-.91-1.27h-1.592a.38.38 0 0 0-.379.38v1.8c0 .208.17.379.38.379h1.667zm7.923-5.421h2.483c.209 0 .38.17.38.379v11.183a.38.38 0 0 1-.38.38h-2.483a.38.38 0 0 1-.379-.38V9.098c0-.208.17-.379.38-.379zm6.274 11.562V9.098c0-.208.17-.379.379-.379h2.483c.209 0 .38.17.38.379v8.321c0 .208.17.379.378.379h4.606c.209 0 .38.17.38.38v2.103a.38.38 0 0 1-.38.38h-7.847a.38.38 0 0 1-.38-.38zm12.036 0V9.098c0-.208.17-.379.379-.379h2.483c.208 0 .38.17.38.379v8.321c0 .208.17.379.378.379h4.606c.209 0 .38.17.38.38v2.103a.38.38 0 0 1-.38.38h-7.866c-.19 0-.36-.171-.36-.38zm12.32-11.562h2.483c.209 0 .38.17.38.379v11.183a.38.38 0 0 1-.38.38h-2.483a.38.38 0 0 1-.379-.38V9.098c0-.208.17-.379.38-.379zm14.349 3.582a.38.38 0 0 1-.512.17c-.569-.302-1.725-.871-2.73-.871-.55 0-.928.17-.928.569 0 .606.815.739 2.16 1.175 2.142.682 3.488 1.44 3.488 3.62-.019 2.786-2.275 3.696-4.416 3.696a10.495 10.495 0 0 1-4.72-1.194c-.19-.095-.246-.322-.17-.512l1.042-2.123a.38.38 0 0 1 .512-.17s.019 0 .019.019c.644.36 2.047 1.08 3.373 1.08.683 0 .93-.19.93-.512 0-.682-1.195-.815-2.579-1.307-2.047-.683-2.937-1.555-2.937-3.28 0-2.577 2.047-3.961 4.321-3.961 1.498 0 2.957.588 4 1.1a.38.38 0 0 1 .17.511l-1.023 1.99zm14.556-.72h-2.634a.38.38 0 0 0-.38.38v8.32a.38.38 0 0 1-.378.38h-2.502a.38.38 0 0 1-.38-.38v-8.32a.38.38 0 0 0-.379-.38h-2.653a.38.38 0 0 1-.38-.379V9.098c0-.208.171-.379.38-.379h9.306c.209 0 .38.17.38.379v2.104a.38.38 0 0 1-.38.379zM.474 29A.47.47 0 0 1 0 28.526V9.003a.47.47 0 0 1 .474-.474h2.464a.47.47 0 0 1 .474.474v16.111a.47.47 0 0 0 .474.474H117.25c.246 0 .455.228.455.474v2.464c0 .266-.19.474-.455.474H.474zM117.232 0a.47.47 0 0 1 .474.474v19.523a.47.47 0 0 1-.474.474h-2.464a.47.47 0 0 1-.474-.474V3.886a.47.47 0 0 0-.474-.474H.455A.465.465 0 0 1 0 2.938V.474C0 .208.19 0 .455 0h116.777z"/></svg>