<svg xmlns="http://www.w3.org/2000/svg" width="40" height="30" viewBox="0 0 40 30" role="img" aria-label="Today Logo Today Logo"><title>Today Logo</title><desc>Today Logo</desc><path fill="#000" fill-opacity=".5" fill-rule="nonzero" d="M7.137 23.34H4.683v6.474H2.528V23.34H0v-1.86h7.137v1.86zm4.534-2.046c2.602 0 4.09 1.935 4.09 4.353 0 2.418-1.488 4.353-4.09 4.353-2.601 0-4.088-1.935-4.088-4.353 0-2.418 1.487-4.353 4.088-4.353zm0 6.846c1.413 0 1.933-1.228 1.933-2.493s-.52-2.493-1.933-2.493c-1.412 0-1.932 1.228-1.932 2.493s.557 2.493 1.932 2.493zm5.056-6.66h3.568c2.602 0 4.089 1.563 4.089 4.093 0 2.753-1.562 4.241-4.09 4.241h-3.567V21.48zm2.23 6.474h1.003c1.636 0 2.305-.67 2.305-2.344 0-1.488-.818-2.233-2.305-2.233h-1.04v4.577h.037zm8.623-6.474h2.23l3.123 8.334h-2.23l-.558-1.488H27.17l-.483 1.488h-2.23l3.122-8.334zm.186 5.209h1.859l-.893-2.902-.929 2.976-.037-.074zm8.958.037v3.125h-2.156v-3.125l-3.048-5.209h2.453l1.673 3.349 1.673-3.349h2.453l-3.048 5.209zM19.886 13.779c3.345 0 6.059 2.753 6.059 6.101h-3.866c0-1.265-1.04-2.232-2.156-2.232a2.214 2.214 0 0 0-2.23 2.232h-3.866c0-3.348 2.714-6.101 6.059-6.101zm.024-4.544c5.84 0 10.676 4.713 10.676 10.651h-3.943c0-3.711-3.05-6.755-6.77-6.755-3.72 0-6.77 3.044-6.77 6.755H9.235c0-5.827 4.798-10.651 10.675-10.651zm-.024-4.593c8.403 0 15.244 6.804 15.244 15.244H31.3c0-6.32-5.093-11.415-11.414-11.415-6.284 0-11.377 5.094-11.377 11.415H4.642c0-8.44 6.841-15.244 15.244-15.244zM19.916 0c10.932 0 19.856 8.92 19.856 19.886h-3.867c0-8.846-7.176-15.983-15.989-15.983-8.812 0-15.988 7.137-15.988 15.983H.098C.098 8.921 8.948 0 19.916 0z"/></svg>